<svg width="26" height="25" viewBox="0 0 26 25" fill="none" xmlns="http://www.w3.org/2000/svg">
<path d="M12.0929 1.48525C12.3866 0.55224 13.7069 0.552243 14.0006 1.48525L16.2047 8.48754C16.3358 8.90402 16.7219 9.1873 17.1585 9.1873H24.357C25.318 9.1873 25.7258 10.4107 24.957 10.9873L19.0793 15.3955C18.7398 15.65 18.598 16.091 18.7254 16.4957L20.9575 23.587C21.2493 24.5139 20.1811 25.2703 19.4036 24.6873L13.6467 20.3697C13.2912 20.1031 12.8023 20.1031 12.4468 20.3697L6.68985 24.6873C5.91243 25.2703 4.84423 24.5139 5.136 23.587L7.3681 16.4957C7.49548 16.091 7.35363 15.65 7.01422 15.3955L1.13652 10.9873C0.367694 10.4107 0.775486 9.1873 1.73651 9.1873H8.93493C9.37156 9.1873 9.7577 8.90402 9.8888 8.48754L12.0929 1.48525Z" fill="black"/>
</svg>
