<svg width="18" height="49" viewBox="0 0 18 49" fill="none" xmlns="http://www.w3.org/2000/svg">
<mask id="mask0_179:590" style="mask-type:alpha" maskUnits="userSpaceOnUse" x="0" y="0" width="18" height="49">
<rect width="18" height="49" fill="#C4C4C4"/>
</mask>
<g mask="url(#mask0_179:590)">
<path d="M18.6792 11.5156C18.9785 10.5943 20.2819 10.5943 20.5813 11.5156L22.8172 18.3972C22.9511 18.8092 23.3351 19.0882 23.7683 19.0882H31.004C31.9727 19.0882 32.3755 20.3278 31.5918 20.8972L25.738 25.1502C25.3875 25.4049 25.2408 25.8562 25.3747 26.2682L27.6106 33.1498C27.91 34.0711 26.8555 34.8372 26.0718 34.2678L20.218 30.0148C19.8675 29.7602 19.3929 29.7602 19.0424 30.0148L13.1886 34.2678C12.4049 34.8372 11.3504 34.0711 11.6498 33.1498L13.8857 26.2682C14.0196 25.8562 13.873 25.4049 13.5225 25.1502L7.66866 20.8972C6.88495 20.3278 7.28772 19.0882 8.25645 19.0882H15.4921C15.9254 19.0882 16.3093 18.8092 16.4432 18.3972L18.6792 11.5156Z" fill="black"/>
</g>
</svg>
