<svg width="31" height="29" viewBox="0 0 31 29" fill="none" xmlns="http://www.w3.org/2000/svg">
<path d="M7.97293 0.153076C4.07896 0.153076 0.911621 3.26283 0.911621 7.086V21.8482C0.911621 25.6714 4.07896 28.7811 7.97293 28.7811H23.0085C26.9025 28.7811 30.0698 25.6714 30.0698 21.8482V7.086C30.0698 3.26283 26.9025 0.153076 23.0085 0.153076H7.97293ZM23.1762 5.42137C24.0146 5.42137 24.704 6.0982 24.704 6.92137C24.704 7.74454 24.0146 8.42137 23.1762 8.42137C22.3378 8.42137 21.6484 7.74454 21.6484 6.92137C21.6298 6.0982 22.3191 5.42137 23.1762 5.42137ZM15.5 6.92137C19.7294 6.92137 23.1762 10.2872 23.1762 14.458C23.1762 18.6287 19.748 21.9945 15.5 21.9945C11.2521 21.9945 7.82388 18.6287 7.82388 14.458C7.82388 10.3055 11.2707 6.92137 15.5 6.92137ZM15.5 9.18966C12.5376 9.18966 10.1342 11.5494 10.1342 14.458C10.1342 17.3665 12.5376 19.7262 15.5 19.7262C18.4624 19.7262 20.8659 17.3665 20.8659 14.458C20.8659 11.5494 18.4624 9.18966 15.5 9.18966Z" fill="white"/>
</svg>
