<svg width="51" height="33" viewBox="0 0 51 33" fill="none" xmlns="http://www.w3.org/2000/svg">
<path d="M24.8693 16.7531H14.6869C13.9362 16.7531 13.3731 17.3515 13.3731 18.0418V20.5732C13.3731 21.3096 13.9831 21.8619 14.6869 21.8619H19.0508V26.0042C18.6285 26.3724 18.0185 26.6946 17.2208 26.9247C16.3292 27.2008 15.1562 27.3389 13.7016 27.3389C11.6839 27.3389 10.0885 26.6485 8.91539 25.2218C7.74231 23.795 7.13231 21.908 7.13231 19.6527V13.1632C7.13231 10.908 7.69539 9.06695 8.86847 7.64017C9.99462 6.21339 11.4962 5.52301 13.3731 5.52301C15.1562 5.52301 16.47 5.98326 17.3616 6.85774C17.8777 7.36402 18.3939 8.83682 18.7692 10.8159C18.91 11.5063 19.4731 11.4142 20.1769 11.4142H24.3062C25.4323 11.4142 25.5731 11.3682 25.6669 11.0921L25.7139 10.954V10.908C25.62 6.67364 23.9308 4.23431 22.4293 2.89958C20.2708 0.966527 17.1739 0 13.1854 0C9.3377 0 6.14693 1.24268 3.70693 3.68201C1.22 6.16736 0 9.3431 0 13.2092V19.7908C0 23.6569 1.31385 26.8787 3.8477 29.318C6.38154 31.7573 9.71309 33 13.7485 33C16.8923 33 19.52 32.4937 21.5846 31.5272C23.2269 30.7448 24.5408 29.8703 25.5262 28.9038C25.9954 28.4435 26.2769 27.569 26.2769 26.9707V18.0879C26.23 17.3515 25.62 16.7531 24.8693 16.7531Z" fill="white"/>
<path d="M45.7969 0H33.5031C30.8284 0 28.623 2.11716 28.623 4.74059V11.4603H34.5354V7.22594C34.5354 6.67364 34.9107 6.53556 35.3331 6.85774L46.8761 13.4854C47.2985 13.8075 47.2985 14.3598 46.8761 14.682L35.3331 22.2301C34.9107 22.5523 34.5354 22.3682 34.5354 21.8619V16.7992H28.623V28.2594C28.623 30.8828 30.8284 33 33.5031 33H45.7969C48.4715 33 50.6769 30.8828 50.6769 28.2594V4.74059C50.6769 2.11716 48.4715 0 45.7969 0ZM44.1546 3.91213H35.2861C34.77 3.91213 34.3007 3.63598 34.3007 3.31381C34.3007 2.99163 34.7231 2.71548 35.2861 2.71548H44.1546C44.6708 2.71548 45.14 2.99163 45.14 3.31381C45.14 3.63598 44.6708 3.91213 44.1546 3.91213ZM39.6969 30.8368C38.3831 30.8368 37.3038 29.7782 37.3038 28.4895C37.3038 27.2008 38.3831 26.1423 39.6969 26.1423C41.0108 26.1423 42.09 27.2008 42.09 28.4895C42.09 29.7782 41.0577 30.8368 39.6969 30.8368Z" fill="white"/>
</svg>
