<svg width="32" height="24" viewBox="0 0 32 24" fill="none" xmlns="http://www.w3.org/2000/svg">
<path d="M30.7072 4.40921C30.4145 2.81775 29.0426 1.66531 27.4511 1.29945C25.073 0.787258 20.6462 0.439697 15.8718 0.439697C11.0974 0.439697 6.61573 0.80555 4.21939 1.29945C2.62793 1.66531 1.25598 2.74458 0.963296 4.40921C0.560857 6.91531 0.37793 9.45799 0.37793 12.0007C0.37793 15.2568 0.670613 17.7812 1.03647 19.5921C1.32915 21.1836 2.7011 22.336 4.29256 22.7019C6.81695 23.2141 11.1706 23.5617 15.945 23.5617C20.7194 23.5617 25.0548 23.1958 27.5974 22.7019C29.1889 22.336 30.5609 21.2568 30.8535 19.5921C31.2743 17.086 31.5121 14.5434 31.5852 12.0007C31.4938 9.4397 31.2011 6.91531 30.7072 4.40921ZM11.9755 17.0678V6.9336L20.8109 12.0007L11.9755 17.0678Z" fill="white"/>
</svg>
