<svg width="630" height="400" viewBox="0 0 630 400" fill="none" xmlns="http://www.w3.org/2000/svg">
<path d="M401.568 244.888C412.863 244.888 422.02 235.733 422.02 224.441C422.02 213.148 412.863 203.994 401.568 203.994C390.272 203.994 381.115 213.148 381.115 224.441C381.115 235.733 390.272 244.888 401.568 244.888Z" stroke="white" stroke-linecap="round" stroke-linejoin="round"/>
<path d="M462.628 244.888C473.923 244.888 483.08 235.733 483.08 224.441C483.08 213.148 473.923 203.994 462.628 203.994C451.332 203.994 442.176 213.148 442.176 224.441C442.176 235.733 451.332 244.888 462.628 244.888Z" stroke="white" stroke-linecap="round" stroke-linejoin="round"/>
<path d="M91.5585 295.156C96.883 272.603 82.9114 250.004 60.3521 244.681C37.7929 239.358 15.1887 253.326 9.8642 275.88C4.53973 298.433 18.5113 321.032 41.0705 326.355C63.6298 331.678 86.234 317.71 91.5585 295.156Z" fill="white"/>
<path d="M50.7411 286.445C55.9425 286.445 60.1591 282.23 60.1591 277.03C60.1591 271.83 55.9425 267.614 50.7411 267.614C45.5397 267.614 41.3232 271.83 41.3232 277.03C41.3232 282.23 45.5397 286.445 50.7411 286.445Z" fill="#FF7323"/>
<path d="M69.3132 303.441C68.5707 299.054 66.2982 295.071 62.8986 292.199C59.499 289.327 55.1921 287.752 50.7413 287.752C46.2906 287.752 41.9836 289.327 38.584 292.199C35.1845 295.071 32.912 299.054 32.1694 303.441H69.3132Z" fill="#FF7323"/>
<path d="M393.603 148.747H361.873V153.871H393.603V148.747Z" fill="white"/>
<path d="M234.872 197.708V361.578" stroke="white" stroke-linecap="round" stroke-linejoin="round"/>
<path d="M272.36 192.154L234.872 277.554" stroke="white" stroke-linecap="round" stroke-linejoin="round"/>
<path d="M227.655 186.386L236.965 207.005C237.934 209.151 239.716 210.826 241.919 211.659C244.123 212.492 246.567 212.416 248.715 211.448L289.676 192.963L290.938 189.626L276.399 157.416L273.056 156.155L232.1 174.634C231.036 175.114 230.077 175.798 229.278 176.649C228.478 177.499 227.855 178.498 227.442 179.59C227.029 180.681 226.835 181.843 226.872 183.009C226.909 184.176 227.175 185.323 227.655 186.386Z" fill="#FF7323"/>
<path d="M235.83 283.375C239.057 282.851 241.248 279.811 240.725 276.585C240.201 273.359 237.161 271.169 233.934 271.692C230.707 272.216 228.516 275.256 229.039 278.482C229.563 281.708 232.604 283.898 235.83 283.375Z" fill="white"/>
<path d="M234.872 281.296C236.94 281.296 238.616 279.621 238.616 277.554C238.616 275.487 236.94 273.811 234.872 273.811C232.804 273.811 231.128 275.487 231.128 277.554C231.128 279.621 232.804 281.296 234.872 281.296Z" stroke="#999687" stroke-linecap="round" stroke-linejoin="round"/>
<path d="M263.486 371.363H206.258V365.363C206.258 363.96 206.815 362.614 207.808 361.622C208.8 360.63 210.146 360.073 211.549 360.073H258.195C259.599 360.073 260.944 360.63 261.937 361.622C262.929 362.614 263.486 363.96 263.486 365.363V371.363Z" fill="white"/>
<path d="M269.655 378.361H200.079V372.36C200.078 371.664 200.214 370.975 200.48 370.331C200.745 369.688 201.135 369.103 201.627 368.611C202.119 368.119 202.703 367.728 203.347 367.462C203.99 367.196 204.679 367.059 205.375 367.06H264.364C265.767 367.06 267.113 367.617 268.105 368.609C269.097 369.601 269.655 370.947 269.655 372.349V378.361Z" fill="white"/>
<path d="M273.622 158.797L288.066 190.793L307.516 182.016C311.76 180.1 315.069 176.578 316.715 172.224C318.361 167.87 318.211 163.04 316.296 158.797C314.38 154.554 310.857 151.247 306.502 149.601C302.147 147.954 297.316 148.105 293.072 150.019L273.622 158.797Z" fill="black"/>
<path d="M290.937 189.626L276.399 157.416" stroke="white" stroke-linecap="round" stroke-linejoin="round"/>
<path d="M293.985 188.12L279.556 156.118" stroke="white" stroke-linecap="round" stroke-linejoin="round"/>
<path d="M296.893 186.812L282.905 154.608" stroke="white" stroke-linecap="round" stroke-linejoin="round"/>
<path d="M300.237 185.302L285.969 153.227" stroke="white" stroke-linecap="round" stroke-linejoin="round"/>
<path d="M303.586 183.791L289.312 151.717" stroke="white" stroke-linecap="round" stroke-linejoin="round"/>
<path d="M306.935 182.28L292.557 150.253" stroke="white" stroke-linecap="round" stroke-linejoin="round"/>
<path d="M310.595 180.235L296.036 148.986" stroke="white" stroke-linecap="round" stroke-linejoin="round"/>
<path d="M299.806 148.472L313.627 177.443" stroke="white" stroke-linecap="round" stroke-linejoin="round"/>
<path d="M315.917 174.027L304.079 148.877" stroke="white" stroke-linecap="round" stroke-linejoin="round"/>
<path d="M317.558 169.205L309.255 150.928" stroke="white" stroke-linecap="round" stroke-linejoin="round"/>
<path d="M316.296 158.797L284.333 174.992" stroke="white" stroke-linecap="round" stroke-linejoin="round"/>
<path d="M317.532 162.685L285.922 178.512" stroke="white" stroke-linecap="round" stroke-linejoin="round"/>
<path d="M317.843 166.542L287.407 181.798" stroke="white" stroke-linecap="round" stroke-linejoin="round"/>
<path d="M316.743 171.743L289.089 185.53" stroke="white" stroke-linecap="round" stroke-linejoin="round"/>
<path d="M313.627 177.443L290.496 188.644" stroke="white" stroke-linecap="round" stroke-linejoin="round"/>
<path d="M314.676 155.952C314.676 155.952 282.734 172.117 282.884 171.727" stroke="white" stroke-linecap="round" stroke-linejoin="round"/>
<path d="M312.085 153.009L281.192 168.037" stroke="white" stroke-linecap="round" stroke-linejoin="round"/>
<path d="M308.648 150.351L279.779 164.299" stroke="white" stroke-linecap="round" stroke-linejoin="round"/>
<path d="M303.009 148.68L278.087 160.671" stroke="white" stroke-linecap="round" stroke-linejoin="round"/>
<path d="M252.65 209.673L237.24 172.314" stroke="white" stroke-linecap="round" stroke-linejoin="round"/>
<path d="M278.409 198.05L278.035 197.266C277.488 196.13 276.519 195.252 275.333 194.819C274.148 194.387 272.841 194.434 271.69 194.951L250.496 204.477" stroke="white" stroke-linecap="round" stroke-linejoin="round"/>
<path d="M460.234 172.812C452.212 183.781 443.708 194.432 433.058 202.8C426.745 207.762 419.507 211.931 411.542 212.959C411.075 213.017 410.602 213.064 410.124 213.099C402.559 213.649 394.548 210.944 390.067 204.85C386.687 200.225 385.685 194.266 385.555 188.541C385.472 185.078 385.674 181.606 385.721 178.159C385.721 177.422 385.721 176.685 385.721 175.948L391.557 174.608L385.503 154.992C384.558 155.428 383.589 155.821 382.595 156.17C378.961 157.447 375.846 158.901 372.003 159.186C365.773 159.643 360.061 155.034 357.273 149.438C352.891 140.582 353.737 129.967 353.171 120.426C352.709 112.676 352.05 104.521 352.699 96.5999C352.844 94.8038 353.062 93.013 353.358 91.2481C354.092 86.589 355.586 82.0821 357.782 77.9075C361.297 71.3515 364.874 68.0137 371.801 64.894C380.734 60.8325 390.644 59.4146 400.359 60.8083C410.073 62.202 419.184 66.3489 426.615 72.7582C431.506 76.968 435.675 82.2783 437.378 88.5021C438.531 92.7171 438.505 97.1813 437.944 101.521C437.718 103.29 437.396 105.045 436.978 106.779C436.091 103.039 433.946 99.7179 430.901 97.371C427.856 95.024 424.098 93.7941 420.254 93.8872C416.411 93.9802 412.716 95.3906 409.789 97.8821C406.862 100.374 404.879 103.795 404.174 107.573C403.986 108.585 403.892 109.612 403.894 110.641C403.895 113.206 404.484 115.736 405.616 118.037C406.748 120.338 408.394 122.349 410.425 123.915C412.457 125.481 414.821 126.56 417.335 127.069C419.849 127.578 422.446 127.504 424.927 126.852C424.065 127.667 423.172 128.456 422.259 129.225C425.55 146.515 430.047 162.218 439.206 171.566L460.234 172.812Z" fill="white"/>
<path d="M460.234 172.812C452.212 183.781 443.708 194.432 433.058 202.8C426.745 207.762 419.507 211.931 411.542 212.959C411.075 213.017 410.602 213.064 410.125 213.099C402.559 213.649 394.548 210.944 390.067 204.85C386.687 200.225 385.685 194.266 385.555 188.541C385.472 185.078 385.674 181.606 385.721 178.159C385.721 177.422 385.721 176.685 385.721 175.948L391.557 174.608L389.844 169.07L385.498 154.997C384.553 155.433 383.584 155.826 382.59 156.176C378.956 157.453 375.84 158.906 371.998 159.191C365.768 159.648 360.056 155.039 357.268 149.443C353.758 142.347 353.602 134.13 353.389 126.229C353.337 124.272 353.28 122.331 353.166 120.431C352.704 112.681 352.045 104.526 352.694 96.6051C352.839 94.809 353.057 93.0182 353.353 91.2533C354.087 86.5942 355.581 82.0873 357.777 77.9127C361.292 71.3567 364.869 68.0189 371.796 64.8992C380.729 60.8377 390.639 59.4198 400.354 60.8135C410.068 62.2072 419.179 66.3541 426.61 72.7634C431.501 76.9732 435.67 82.2835 437.373 88.5073C438.526 92.7223 438.5 97.1865 437.939 101.526C437.713 103.295 437.391 105.05 436.973 106.784C436.086 103.045 433.94 99.7231 430.896 97.3762C427.851 95.0292 424.093 93.7993 420.249 93.8923C416.406 93.9854 412.711 95.3958 409.784 97.8873C406.856 100.379 404.874 103.8 404.169 107.579C403.98 108.59 403.887 109.617 403.889 110.646C403.889 113.211 404.479 115.741 405.611 118.042C406.743 120.344 408.388 122.355 410.42 123.92C412.452 125.486 414.815 126.565 417.33 127.074C419.844 127.584 422.441 127.509 424.922 126.857C424.06 127.672 423.167 128.461 422.253 129.23C425.545 146.521 430.042 162.223 439.201 171.572L460.234 172.812Z" fill="#F7C39F"/>
<path d="M359.095 205.837L307.127 302.999L213.029 312.732C203.859 313.293 149.455 341.282 143.38 343.878C141.169 343.784 139.393 346.037 138.775 347.937C135.94 356.652 133.064 365.446 132.42 374.499C132.331 375.651 132.295 376.86 132.882 377.888C133.469 378.916 134.886 379.648 136.075 379.196C137.051 378.823 137.503 377.836 137.866 376.943C141.598 367.693 145.333 358.445 149.071 349.198C146.034 356.985 143.297 365.633 142.435 373.824C142.24 374.864 142.321 375.938 142.669 376.938C142.895 377.461 143.279 377.899 143.767 378.193C144.255 378.486 144.822 378.619 145.39 378.573C146.151 378.408 146.842 378.01 147.368 377.437C151.75 373.258 154.196 368.005 156.252 362.528C155.076 366.122 154.138 369.79 153.443 373.507C153.16 374.617 153.14 375.778 153.386 376.897C153.543 377.483 153.868 378.01 154.321 378.414C154.774 378.818 155.335 379.081 155.935 379.17C157.602 379.347 158.941 378.023 159.902 376.793C164.087 371.42 167.057 365.43 169.596 359.263C168 364.057 166.73 368.952 165.795 373.917C165.463 375.687 165.494 377.997 167.353 378.677C168.062 378.903 168.824 378.903 169.534 378.677C172.446 377.867 174.051 375.142 175.292 372.651C178.464 366.275 181.266 359.722 183.682 353.024C195.453 353.704 206.85 351.955 217.172 347.34L310.668 350.055H330.305C335.787 350.053 341.154 348.485 345.774 345.535C350.394 342.584 354.074 338.375 356.38 333.402L408.774 220.433L359.095 205.837ZM159.44 353.777C159.959 352.38 160.535 350.999 161.153 349.624C160.572 350.979 160.001 352.359 159.44 353.751V353.777Z" fill="#F7C39F"/>
<path d="M159.44 353.751C159.959 352.354 160.535 350.974 161.153 349.598C160.572 350.979 160.001 352.36 159.44 353.751Z" stroke="white" stroke-linecap="round" stroke-linejoin="round"/>
<path d="M383.857 107.085C383.857 108.788 382.902 110.169 381.723 110.169C380.544 110.169 379.584 108.788 379.584 107.085C379.584 105.383 380.544 104.002 381.723 104.002C382.902 104.002 383.857 105.383 383.857 107.085Z" fill="black"/>
<path d="M359.537 108.29C359.537 109.992 358.581 111.373 357.403 111.373C356.224 111.373 355.269 109.992 355.269 108.29C355.269 106.587 356.224 105.206 357.403 105.206C358.581 105.206 359.537 106.587 359.537 108.29Z" fill="black"/>
<path d="M368.317 99.2628L368.078 115.152C363.685 114.301 361.027 115.017 367.133 123.691" stroke="black" stroke-linecap="round" stroke-linejoin="round"/>
<path d="M363.571 134.836C364.797 144.413 379.231 141.48 384.688 127.013C369.739 126.899 359.21 128.311 363.571 134.836Z" fill="black"/>
<path d="M363.571 134.836C368.332 138.734 376.256 133.6 384.688 127.013C375.638 129.951 367.637 132.718 363.571 134.836Z" fill="white"/>
<path d="M375.404 97.3941C376.366 97.3282 377.32 97.1771 378.255 96.9425C381.503 96.3475 384.851 96.6142 387.964 97.7159C389.247 98.1623 390.524 98.7541 391.879 98.7126C393.234 98.6711 394.704 97.7886 394.807 96.439C394.818 96.0195 394.73 95.6033 394.55 95.2245C394.369 94.8456 394.102 94.5147 393.769 94.2588C393.097 93.7553 392.341 93.3756 391.536 93.1376C387.431 91.6445 383.059 91.0273 378.701 91.326C377.055 91.4661 373.904 92.1202 372.881 93.6359C371.531 95.6136 373.099 97.4252 375.404 97.3941Z" fill="black"/>
<path d="M365.705 99.0085C365.601 100.358 364.148 101.256 362.782 101.282C361.416 101.308 360.144 100.732 358.862 100.285C356.882 99.5913 354.802 99.2248 352.704 99.2005C350.316 97.1242 351.058 95.3956 353.363 93.8488C356.453 94.0464 359.501 94.6718 362.419 95.7071C363.226 95.944 363.984 96.3237 364.656 96.8283C364.99 97.0837 365.259 97.4142 365.442 97.793C365.624 98.1718 365.714 98.5882 365.705 99.0085Z" fill="black"/>
<mask id="path-47-inside-1_8_483" fill="white">
<path fill-rule="evenodd" clip-rule="evenodd" d="M451.012 104.401C452.759 100.635 453.806 96.6005 453.853 92.3538C453.895 88.4762 453.303 84.5675 451.59 81.0688C449.341 76.5112 445.359 73.0853 441.418 69.8773C438.858 67.801 436.174 65.7246 433.059 64.6864C431.979 64.3332 430.858 64.1147 429.738 63.8961C428.519 63.6584 427.3 63.4207 426.132 63.0098C422.279 61.6619 419.441 58.6783 416.581 55.6717C414.308 53.2823 412.021 50.8785 409.2 49.2695C403.982 46.3107 397.321 46.4924 391.874 49.0204C386.427 51.5483 381.879 56.2461 379.008 61.5096C371.162 60.1185 363.255 64.5411 358.011 70.5365C354.288 74.8034 351.484 80.285 352.003 85.9171C352.091 86.8567 352.159 87.246 353.078 87.4744C353.784 88.2478 354.952 88.4035 355.991 88.4035C360.949 88.4092 365.709 86.4622 369.241 82.9843C370.881 81.248 372.35 79.3585 373.629 77.3418L381.126 66.2852C380.539 70.3704 382.757 74.248 385.732 77.1186C388.28 79.5774 391.388 81.3583 394.47 83.1235C394.985 83.4191 395.501 83.7142 396.012 84.012C397.43 84.8478 398.884 85.7666 399.74 87.1733C400.371 88.3494 400.753 89.6429 400.862 90.973C401.3 94.208 401.441 97.4764 401.282 100.737C401.278 100.822 401.273 100.908 401.269 100.994C401.203 102.223 401.135 103.489 401.62 104.615C402.095 105.576 402.777 106.42 403.619 107.085L404.185 107.579C404.802 104.271 406.4 101.225 408.773 98.8376C411.145 96.4504 414.181 94.8323 417.486 94.1939C420.79 93.5555 424.211 93.9263 427.302 95.2581C430.393 96.5899 433.011 98.821 434.817 101.661C435.832 103.258 436.563 105.006 436.99 106.828C433.421 109.294 431.489 112.807 430.67 117.784C430.397 119.467 429.556 121.114 428.731 122.728C428.152 123.86 427.582 124.976 427.221 126.078C426.923 126.205 426.62 126.323 426.313 126.433C423.143 127.566 419.706 127.72 416.449 126.873C416.479 127.268 416.507 127.663 416.536 128.058C416.792 131.58 417.048 135.108 418.131 138.459C419.486 142.659 422.461 146.661 426.724 147.849C430.357 148.865 432.959 145.927 434.55 142.052C436.103 145.112 439.797 147.1 443.199 146.375C444.694 146.055 446.092 145.303 447.475 144.559C449.479 143.48 451.452 142.419 453.645 142.71C454.516 142.824 455.335 143.151 456.153 143.478C456.491 143.613 456.829 143.748 457.171 143.868C461.19 145.28 466.782 143.645 467.42 139.435C467.603 138.233 467.354 137.041 467.105 135.845C466.958 135.14 466.81 134.435 466.751 133.725C466.545 131.315 467.332 129.01 468.122 126.695C468.789 124.741 469.457 122.782 469.534 120.748C469.556 118.396 468.801 116.103 467.385 114.226C465.969 112.348 463.971 110.991 461.704 110.366C458.774 109.636 456.633 108.115 454.613 106.679C453.417 105.829 452.263 105.009 451.012 104.401Z"/>
</mask>
<path fill-rule="evenodd" clip-rule="evenodd" d="M451.012 104.401C452.759 100.635 453.806 96.6005 453.853 92.3538C453.895 88.4762 453.303 84.5675 451.59 81.0688C449.341 76.5112 445.359 73.0853 441.418 69.8773C438.858 67.801 436.174 65.7246 433.059 64.6864C431.979 64.3332 430.858 64.1147 429.738 63.8961C428.519 63.6584 427.3 63.4207 426.132 63.0098C422.279 61.6619 419.441 58.6783 416.581 55.6717C414.308 53.2823 412.021 50.8785 409.2 49.2695C403.982 46.3107 397.321 46.4924 391.874 49.0204C386.427 51.5483 381.879 56.2461 379.008 61.5096C371.162 60.1185 363.255 64.5411 358.011 70.5365C354.288 74.8034 351.484 80.285 352.003 85.9171C352.091 86.8567 352.159 87.246 353.078 87.4744C353.784 88.2478 354.952 88.4035 355.991 88.4035C360.949 88.4092 365.709 86.4622 369.241 82.9843C370.881 81.248 372.35 79.3585 373.629 77.3418L381.126 66.2852C380.539 70.3704 382.757 74.248 385.732 77.1186C388.28 79.5774 391.388 81.3583 394.47 83.1235C394.985 83.4191 395.501 83.7142 396.012 84.012C397.43 84.8478 398.884 85.7666 399.74 87.1733C400.371 88.3494 400.753 89.6429 400.862 90.973C401.3 94.208 401.441 97.4764 401.282 100.737C401.278 100.822 401.273 100.908 401.269 100.994C401.203 102.223 401.135 103.489 401.62 104.615C402.095 105.576 402.777 106.42 403.619 107.085L404.185 107.579C404.802 104.271 406.4 101.225 408.773 98.8376C411.145 96.4504 414.181 94.8323 417.486 94.1939C420.79 93.5555 424.211 93.9263 427.302 95.2581C430.393 96.5899 433.011 98.821 434.817 101.661C435.832 103.258 436.563 105.006 436.99 106.828C433.421 109.294 431.489 112.807 430.67 117.784C430.397 119.467 429.556 121.114 428.731 122.728C428.152 123.86 427.582 124.976 427.221 126.078C426.923 126.205 426.62 126.323 426.313 126.433C423.143 127.566 419.706 127.72 416.449 126.873C416.479 127.268 416.507 127.663 416.536 128.058C416.792 131.58 417.048 135.108 418.131 138.459C419.486 142.659 422.461 146.661 426.724 147.849C430.357 148.865 432.959 145.927 434.55 142.052C436.103 145.112 439.797 147.1 443.199 146.375C444.694 146.055 446.092 145.303 447.475 144.559C449.479 143.48 451.452 142.419 453.645 142.71C454.516 142.824 455.335 143.151 456.153 143.478C456.491 143.613 456.829 143.748 457.171 143.868C461.19 145.28 466.782 143.645 467.42 139.435C467.603 138.233 467.354 137.041 467.105 135.845C466.958 135.14 466.81 134.435 466.751 133.725C466.545 131.315 467.332 129.01 468.122 126.695C468.789 124.741 469.457 122.782 469.534 120.748C469.556 118.396 468.801 116.103 467.385 114.226C465.969 112.348 463.971 110.991 461.704 110.366C458.774 109.636 456.633 108.115 454.613 106.679C453.417 105.829 452.263 105.009 451.012 104.401Z" fill="black"/>
<path d="M453.853 92.3538L454.853 92.3648V92.3645L453.853 92.3538ZM451.012 104.401L450.105 103.98L449.691 104.87L450.574 105.3L451.012 104.401ZM451.59 81.0688L452.488 80.629L452.486 80.6264L451.59 81.0688ZM441.418 69.8773L442.049 69.1018L442.048 69.1007L441.418 69.8773ZM433.059 64.6864L433.375 63.7377L433.369 63.736L433.059 64.6864ZM429.738 63.8961L429.546 64.8776L429.738 63.8961ZM426.132 63.0098L426.464 62.0664L426.462 62.0658L426.132 63.0098ZM416.581 55.6717L417.305 54.9825L416.581 55.6717ZM409.2 49.2695L409.696 48.4009L409.694 48.3996L409.2 49.2695ZM391.874 49.0204L391.453 48.1133V48.1133L391.874 49.0204ZM379.008 61.5096L378.833 62.4943L379.541 62.6198L379.886 61.9885L379.008 61.5096ZM358.011 70.5365L357.258 69.8782L357.257 69.8791L358.011 70.5365ZM352.003 85.9171L351.007 86.0089L351.008 86.0106L352.003 85.9171ZM353.078 87.4744L353.817 86.8001L353.613 86.5768L353.319 86.5039L353.078 87.4744ZM355.991 88.4035L355.992 87.4035H355.991V88.4035ZM369.241 82.9843L369.943 83.6968L369.956 83.6841L369.968 83.6708L369.241 82.9843ZM373.629 77.3418L372.801 76.7805L372.792 76.7933L372.784 76.8063L373.629 77.3418ZM381.126 66.2852L382.116 66.4274L380.299 65.724L381.126 66.2852ZM385.732 77.1186L386.426 76.3989L385.732 77.1186ZM394.47 83.1235L394.967 82.2558L394.47 83.1235ZM396.012 84.012L396.52 83.1506L396.515 83.1478L396.012 84.012ZM399.74 87.1733L400.621 86.7005L400.609 86.6765L400.594 86.6531L399.74 87.1733ZM400.862 90.973L399.865 91.0545L399.867 91.081L399.871 91.1073L400.862 90.973ZM401.282 100.737L402.281 100.789L402.281 100.786L401.282 100.737ZM401.269 100.994L402.267 101.048V101.048L401.269 100.994ZM401.62 104.615L400.702 105.011L400.712 105.034L400.723 105.057L401.62 104.615ZM403.619 107.085L404.276 106.332L404.258 106.316L404.239 106.301L403.619 107.085ZM404.185 107.579L403.528 108.333L404.847 109.482L405.168 107.762L404.185 107.579ZM408.773 98.8376L408.063 98.1327L408.773 98.8376ZM417.486 94.1939L417.675 95.1757L417.486 94.1939ZM427.302 95.2581L426.906 96.1765L427.302 95.2581ZM434.817 101.661L435.661 101.125L434.817 101.661ZM436.99 106.828L437.558 107.651L438.119 107.263L437.964 106.6L436.99 106.828ZM430.67 117.784L429.683 117.621L429.683 117.624L430.67 117.784ZM428.731 122.728L429.621 123.184L428.731 122.728ZM427.221 126.078L427.612 126.998L428.031 126.821L428.172 126.389L427.221 126.078ZM426.313 126.433L425.976 125.491L426.313 126.433ZM416.449 126.873L416.7 125.905L415.346 125.553L415.452 126.948L416.449 126.873ZM416.536 128.058L417.533 127.985L416.536 128.058ZM418.131 138.459L419.083 138.152L419.083 138.152L418.131 138.459ZM426.724 147.849L426.993 146.886L426.993 146.886L426.724 147.849ZM434.55 142.052L435.441 141.599L434.454 139.653L433.625 141.672L434.55 142.052ZM443.199 146.375L443.407 147.353L443.408 147.353L443.199 146.375ZM447.475 144.559L447.001 143.678H447.001L447.475 144.559ZM453.645 142.71L453.514 143.702L453.516 143.702L453.645 142.71ZM456.153 143.478L456.524 142.549L456.153 143.478ZM457.171 143.868L457.502 142.925L457.502 142.924L457.171 143.868ZM467.42 139.435L466.432 139.285L466.432 139.285L467.42 139.435ZM467.105 135.845L468.083 135.64L467.105 135.845ZM466.751 133.725L467.747 133.641L467.747 133.64L466.751 133.725ZM468.122 126.695L467.175 126.372L468.122 126.695ZM469.534 120.748L470.533 120.785L470.533 120.771L470.533 120.758L469.534 120.748ZM467.385 114.226L468.183 113.624L467.385 114.226ZM461.704 110.366L461.969 109.402L461.958 109.399L461.946 109.396L461.704 110.366ZM454.613 106.679L455.192 105.864L454.613 106.679ZM452.853 92.3427C452.808 96.4287 451.801 100.324 450.105 103.98L451.919 104.822C453.717 100.946 454.804 96.7723 454.853 92.3648L452.853 92.3427ZM450.691 81.5086C452.316 84.8256 452.894 88.5676 452.853 92.3431L454.853 92.3645C454.896 88.3848 454.29 84.3093 452.488 80.629L450.691 81.5086ZM440.787 70.6528C444.741 73.8713 448.553 77.1742 450.693 81.5112L452.486 80.6264C450.129 75.8483 445.977 72.2992 442.049 69.1018L440.787 70.6528ZM432.742 65.6351C435.663 66.6085 438.218 68.5696 440.788 70.6539L442.048 69.1007C439.498 67.0323 436.685 64.8407 433.375 63.7377L432.742 65.6351ZM429.546 64.8776C430.677 65.0982 431.736 65.3061 432.748 65.6369L433.369 63.736C432.221 63.3603 431.039 63.1311 429.929 62.9146L429.546 64.8776ZM425.8 63.9531C427.049 64.3923 428.34 64.6423 429.546 64.8776L429.929 62.9146C428.698 62.6746 427.552 62.4491 426.464 62.0664L425.8 63.9531ZM415.856 56.3609C418.682 59.3322 421.681 62.5125 425.802 63.9537L426.462 62.0658C422.876 60.8114 420.199 58.0244 417.305 54.9825L415.856 56.3609ZM408.705 50.1382C411.376 51.6617 413.564 53.9512 415.856 56.3609L417.305 54.9825C415.052 52.6135 412.667 50.0953 409.696 48.4009L408.705 50.1382ZM392.295 49.9274C397.502 47.5107 403.817 47.3668 408.707 50.1394L409.694 48.3996C404.147 45.2546 397.139 45.4742 391.453 48.1133L392.295 49.9274ZM379.886 61.9885C382.673 56.8798 387.074 52.3506 392.295 49.9274L391.453 48.1133C385.781 50.7461 381.086 55.6123 378.13 61.0307L379.886 61.9885ZM358.763 71.1949C363.883 65.3417 371.466 61.188 378.833 62.4943L379.182 60.525C370.858 59.049 362.626 63.7405 357.258 69.8782L358.763 71.1949ZM352.999 85.8253C352.515 80.5782 355.13 75.3592 358.764 71.194L357.257 69.8791C353.446 74.2476 350.453 79.9918 351.007 86.0089L352.999 85.8253ZM353.319 86.5039C353.144 86.4603 353.073 86.424 353.054 86.4124C353.051 86.4101 353.074 86.4272 353.092 86.4563C353.1 86.4707 353.083 86.4495 353.061 86.3359C353.038 86.2179 353.021 86.0638 352.999 85.8236L351.008 86.0106C351.046 86.4145 351.089 86.995 351.367 87.4685C351.707 88.0493 352.265 88.3027 352.837 88.4448L353.319 86.5039ZM355.991 87.4035C354.968 87.4035 354.208 87.2287 353.817 86.8001L352.339 88.1486C353.36 89.2669 354.937 89.4035 355.991 89.4035V87.4035ZM368.54 82.2717C365.195 85.5652 360.687 87.4089 355.992 87.4035L355.99 89.4035C361.21 89.4095 366.223 87.3593 369.943 83.6968L368.54 82.2717ZM372.784 76.8063C371.54 78.7691 370.11 80.6079 368.514 82.2977L369.968 83.6708C371.652 81.8881 373.16 79.948 374.473 77.8772L372.784 76.8063ZM380.299 65.724L372.801 76.7805L374.456 77.903L381.954 66.8465L380.299 65.724ZM386.426 76.3989C383.559 73.6326 381.595 70.0564 382.116 66.4274L380.136 66.1431C379.484 70.6845 381.954 74.8634 385.037 77.8382L386.426 76.3989ZM394.967 82.2558C391.866 80.4794 388.87 78.7569 386.426 76.3989L385.037 77.8382C387.69 80.3979 390.911 82.2371 393.972 83.9911L394.967 82.2558ZM396.515 83.1478C396 82.848 395.482 82.5511 394.967 82.2558L393.972 83.9911C394.489 84.287 395.001 84.5805 395.509 84.8763L396.515 83.1478ZM400.594 86.6531C399.59 85.0045 397.919 83.9752 396.52 83.1506L395.504 84.8735C396.941 85.7204 398.177 86.5286 398.886 87.6934L400.594 86.6531ZM401.858 90.8915C401.738 89.4244 401.317 87.9977 400.621 86.7005L398.859 87.6461C399.425 88.701 399.768 89.8613 399.865 91.0545L401.858 90.8915ZM402.281 100.786C402.443 97.4639 402.299 94.1343 401.853 90.8387L399.871 91.1073C400.301 94.2817 400.439 97.4888 400.284 100.688L402.281 100.786ZM402.267 101.048C402.272 100.962 402.277 100.875 402.281 100.789L400.284 100.686C400.279 100.77 400.275 100.854 400.27 100.94L402.267 101.048ZM402.538 104.219C402.162 103.346 402.199 102.326 402.267 101.048L400.27 100.94C400.207 102.12 400.107 103.632 400.702 105.011L402.538 104.219ZM404.239 106.301C403.514 105.728 402.926 105.001 402.517 104.172L400.723 105.057C401.263 106.152 402.041 107.113 402.999 107.87L404.239 106.301ZM404.842 106.825L404.276 106.332L402.962 107.839L403.528 108.333L404.842 106.825ZM408.063 98.1327C405.549 100.662 403.855 103.89 403.202 107.395L405.168 107.762C405.748 104.651 407.251 101.787 409.482 99.5425L408.063 98.1327ZM417.296 93.212C413.794 93.8885 410.577 95.6031 408.063 98.1327L409.482 99.5425C411.713 97.2977 414.568 95.7761 417.675 95.1757L417.296 93.212ZM427.698 94.3397C424.422 92.9285 420.798 92.5355 417.296 93.212L417.675 95.1757C420.783 94.5754 423.999 94.9241 426.906 96.1765L427.698 94.3397ZM435.661 101.125C433.748 98.1152 430.973 95.751 427.698 94.3397L426.906 96.1765C429.813 97.4289 432.275 99.5269 433.973 102.198L435.661 101.125ZM437.964 106.6C437.511 104.669 436.736 102.817 435.661 101.125L433.973 102.198C434.927 103.699 435.615 105.343 436.016 107.056L437.964 106.6ZM431.657 117.946C432.443 113.167 434.265 109.926 437.558 107.651L436.422 106.005C432.577 108.661 430.535 112.446 429.683 117.621L431.657 117.946ZM429.621 123.184C430.429 121.602 431.355 119.811 431.657 117.944L429.683 117.624C429.44 119.124 428.682 120.626 427.84 122.273L429.621 123.184ZM428.172 126.389C428.503 125.376 429.034 124.332 429.621 123.184L427.84 122.273C427.27 123.389 426.66 124.577 426.271 125.767L428.172 126.389ZM426.649 127.375C426.975 127.258 427.296 127.133 427.612 126.998L426.831 125.157C426.55 125.277 426.265 125.388 425.976 125.491L426.649 127.375ZM416.197 127.841C419.649 128.738 423.291 128.575 426.649 127.375L425.976 125.491C422.996 126.557 419.764 126.701 416.7 125.905L416.197 127.841ZM417.533 127.985C417.505 127.591 417.476 127.194 417.446 126.798L415.452 126.948C415.481 127.341 415.51 127.735 415.539 128.13L417.533 127.985ZM419.083 138.152C418.043 134.934 417.791 131.529 417.533 127.985L415.539 128.13C415.793 131.632 416.053 135.281 417.179 138.767L419.083 138.152ZM426.993 146.886C423.177 145.822 420.382 142.177 419.083 138.152L417.179 138.766C418.591 143.14 421.746 147.499 426.455 148.813L426.993 146.886ZM433.625 141.672C432.86 143.535 431.889 145.072 430.76 146.018C429.673 146.929 428.449 147.293 426.993 146.886L426.455 148.812C428.632 149.421 430.525 148.824 432.045 147.551C433.523 146.313 434.649 144.443 435.475 142.431L433.625 141.672ZM442.99 145.397C440.075 146.018 436.811 144.297 435.441 141.599L433.658 142.504C435.396 145.927 439.518 148.182 443.407 147.353L442.99 145.397ZM447.001 143.678C445.593 144.436 444.321 145.112 442.989 145.397L443.408 147.353C445.067 146.998 446.591 146.17 447.949 145.439L447.001 143.678ZM453.777 141.719C451.207 141.377 448.941 142.635 447.001 143.678L447.949 145.439C450.017 144.326 451.697 143.46 453.514 143.702L453.777 141.719ZM456.524 142.549C455.726 142.231 454.791 141.852 453.775 141.719L453.516 143.702C454.241 143.797 454.943 144.072 455.782 144.407L456.524 142.549ZM457.502 142.924C457.184 142.813 456.865 142.686 456.524 142.549L455.782 144.407C456.117 144.54 456.475 144.683 456.84 144.812L457.502 142.924ZM466.432 139.285C466.182 140.928 464.964 142.152 463.205 142.826C461.44 143.502 459.282 143.55 457.502 142.925L456.839 144.811C459.079 145.598 461.726 145.534 463.921 144.693C466.123 143.85 468.02 142.152 468.409 139.585L466.432 139.285ZM466.126 136.049C466.382 137.277 466.583 138.291 466.432 139.285L468.409 139.585C468.624 138.175 468.326 136.804 468.083 135.64L466.126 136.049ZM465.754 133.809C465.82 134.59 465.981 135.355 466.126 136.049L468.083 135.64C467.934 134.925 467.801 134.28 467.747 133.641L465.754 133.809ZM467.175 126.372C466.399 128.648 465.528 131.156 465.754 133.81L467.747 133.64C467.562 131.475 468.265 129.371 469.068 127.018L467.175 126.372ZM468.534 120.71C468.465 122.572 467.851 124.392 467.175 126.372L469.068 127.018C469.726 125.091 470.45 122.991 470.533 120.785L468.534 120.71ZM466.586 114.828C467.87 116.529 468.554 118.607 468.534 120.738L470.533 120.758C470.558 118.185 469.732 115.677 468.183 113.624L466.586 114.828ZM461.438 111.33C463.493 111.897 465.303 113.126 466.586 114.828L468.183 113.624C466.634 111.57 464.45 110.086 461.969 109.402L461.438 111.33ZM454.033 107.494C456.045 108.923 458.326 110.555 461.462 111.336L461.946 109.396C459.222 108.717 457.222 107.306 455.192 105.864L454.033 107.494ZM450.574 105.3C451.738 105.866 452.824 106.635 454.033 107.494L455.192 105.864C454.009 105.023 452.787 104.153 451.449 103.501L450.574 105.3Z" fill="white" mask="url(#path-47-inside-1_8_483)"/>
<mask id="path-49-inside-2_8_483" fill="white">
<path fill-rule="evenodd" clip-rule="evenodd" d="M392.512 383.588L534.997 385.747L523.475 299.932C515.214 234.952 503.034 193.451 487.177 174.458L460.234 172.843C452.212 183.812 443.708 194.469 433.058 202.831C426.745 207.794 419.517 211.962 411.542 212.984C411.072 213.045 410.599 213.092 410.125 213.127C410.125 213.124 410.125 213.122 410.125 213.119C402.56 213.67 394.517 210.965 390.072 204.861C386.692 200.236 385.69 194.261 385.56 188.551C385.507 186.321 385.572 184.081 385.638 181.839C385.674 180.616 385.71 179.392 385.726 178.169C385.725 178.169 385.723 178.169 385.722 178.168C385.731 177.433 385.734 176.698 385.726 175.963L379.055 177.494C378.222 177.5 377.389 177.54 376.557 177.614L373.442 177.889C363.846 179.156 355.69 185.909 350.347 193.981C345.23 201.712 342.299 210.628 339.401 219.445C339.273 219.833 339.145 220.222 339.017 220.61C335.99 229.803 332.75 239.1 326.977 246.886C325.34 249.092 323.519 251.141 321.698 253.189C320.268 254.798 318.837 256.407 317.496 258.093C308.716 269.129 304.141 282.838 299.842 296.267L380.918 323.54C383.716 317.578 385.628 311.292 387.267 304.902C388.789 319.48 392.512 383.588 392.512 383.588Z"/>
</mask>
<path fill-rule="evenodd" clip-rule="evenodd" d="M392.512 383.588L534.997 385.747L523.475 299.932C515.214 234.952 503.034 193.451 487.177 174.458L460.234 172.843C452.212 183.812 443.708 194.469 433.058 202.831C426.745 207.794 419.517 211.962 411.542 212.984C411.072 213.045 410.599 213.092 410.125 213.127C410.125 213.124 410.125 213.122 410.125 213.119C402.56 213.67 394.517 210.965 390.072 204.861C386.692 200.236 385.69 194.261 385.56 188.551C385.507 186.321 385.572 184.081 385.638 181.839C385.674 180.616 385.71 179.392 385.726 178.169C385.725 178.169 385.723 178.169 385.722 178.168C385.731 177.433 385.734 176.698 385.726 175.963L379.055 177.494C378.222 177.5 377.389 177.54 376.557 177.614L373.442 177.889C363.846 179.156 355.69 185.909 350.347 193.981C345.23 201.712 342.299 210.628 339.401 219.445C339.273 219.833 339.145 220.222 339.017 220.61C335.99 229.803 332.75 239.1 326.977 246.886C325.34 249.092 323.519 251.141 321.698 253.189C320.268 254.798 318.837 256.407 317.496 258.093C308.716 269.129 304.141 282.838 299.842 296.267L380.918 323.54C383.716 317.578 385.628 311.292 387.267 304.902C388.789 319.48 392.512 383.588 392.512 383.588Z" fill="black"/>
<path d="M534.997 385.747L534.982 386.747L536.142 386.765L535.988 385.614L534.997 385.747ZM392.512 383.588L391.514 383.646L391.568 384.573L392.497 384.588L392.512 383.588ZM523.475 299.932L522.483 300.058L522.484 300.065L523.475 299.932ZM487.177 174.458L487.944 173.817L487.667 173.485L487.236 173.46L487.177 174.458ZM460.234 172.843L460.294 171.845L459.749 171.813L459.427 172.253L460.234 172.843ZM433.058 202.831L432.441 202.045L432.44 202.045L433.058 202.831ZM411.542 212.984L411.415 211.993L411.542 212.984ZM410.125 213.127L409.127 213.183L409.184 214.199L410.198 214.124L410.125 213.127ZM410.125 213.119L411.122 213.054L411.056 212.049L410.052 212.122L410.125 213.119ZM390.072 204.861L390.881 204.272L390.88 204.271L390.072 204.861ZM385.56 188.551L386.56 188.528L386.56 188.527L385.56 188.551ZM385.638 181.839L386.638 181.868V181.868L385.638 181.839ZM385.726 178.169L386.726 178.183L386.737 177.361L385.933 177.191L385.726 178.169ZM385.722 178.168L384.722 178.155L384.711 178.976L385.514 179.147L385.722 178.168ZM385.726 175.963L386.726 175.952L386.712 174.711L385.503 174.988L385.726 175.963ZM379.055 177.494L379.063 178.494L379.172 178.493L379.279 178.469L379.055 177.494ZM376.557 177.614L376.645 178.61L376.645 178.61L376.557 177.614ZM373.442 177.889L373.354 176.893L373.332 176.895L373.311 176.898L373.442 177.889ZM350.347 193.981L349.513 193.429L350.347 193.981ZM339.401 219.445L340.351 219.757L339.401 219.445ZM339.017 220.61L339.967 220.923L339.017 220.61ZM326.977 246.886L327.78 247.482L327.78 247.482L326.977 246.886ZM321.698 253.189L322.446 253.853L321.698 253.189ZM317.496 258.093L316.713 257.471H316.713L317.496 258.093ZM299.842 296.267L298.89 295.962L298.589 296.901L299.523 297.215L299.842 296.267ZM380.918 323.54L380.6 324.488L381.445 324.772L381.824 323.965L380.918 323.54ZM387.267 304.902L388.262 304.798L386.298 304.654L387.267 304.902ZM535.012 384.747L392.528 382.588L392.497 384.588L534.982 386.747L535.012 384.747ZM522.484 300.065L534.006 385.88L535.988 385.614L524.466 299.799L522.484 300.065ZM486.409 175.099C494.206 184.438 501.168 199.406 507.214 220.229C513.254 241.033 518.357 267.597 522.483 300.058L524.467 299.805C520.333 267.286 515.214 240.611 509.135 219.671C503.061 198.75 496.004 183.471 487.944 173.817L486.409 175.099ZM460.174 173.842L487.117 175.456L487.236 173.46L460.294 171.845L460.174 173.842ZM433.676 203.618C444.439 195.166 453.01 184.415 461.041 173.434L459.427 172.253C451.414 183.209 442.976 193.771 432.441 202.045L433.676 203.618ZM411.669 213.976C419.903 212.921 427.3 208.629 433.676 203.617L432.44 202.045C426.189 206.958 419.132 211.003 411.415 211.993L411.669 213.976ZM410.198 214.124C410.69 214.088 411.181 214.039 411.669 213.976L411.415 211.993C410.963 212.051 410.508 212.096 410.052 212.13L410.198 214.124ZM409.127 213.185C409.127 213.183 409.127 213.183 409.127 213.183L411.123 213.071C411.123 213.066 411.123 213.06 411.122 213.054L409.127 213.185ZM389.264 205.449C393.964 211.906 402.388 214.685 410.197 214.117L410.052 212.122C402.731 212.655 395.069 210.025 390.881 204.272L389.264 205.449ZM384.561 188.574C384.692 194.355 385.704 200.578 389.265 205.451L390.88 204.271C387.68 199.893 386.688 194.168 386.56 188.528L384.561 188.574ZM384.638 181.81C384.573 184.047 384.506 186.314 384.561 188.575L386.56 188.527C386.507 186.328 386.572 184.115 386.638 181.868L384.638 181.81ZM384.726 178.156C384.71 179.369 384.674 180.585 384.638 181.81L386.638 181.868C386.673 180.646 386.71 179.415 386.726 178.183L384.726 178.156ZM385.514 179.147C385.514 179.147 385.515 179.147 385.515 179.147C385.515 179.147 385.515 179.147 385.516 179.147C385.516 179.147 385.518 179.147 385.519 179.148L385.933 177.191C385.933 177.191 385.933 177.191 385.933 177.191C385.933 177.191 385.933 177.191 385.932 177.191C385.932 177.191 385.93 177.19 385.929 177.19L385.514 179.147ZM384.726 175.974C384.734 176.699 384.731 177.425 384.722 178.155L386.721 178.182C386.731 177.44 386.734 176.697 386.726 175.952L384.726 175.974ZM379.279 178.469L385.95 176.938L385.503 174.988L378.831 176.519L379.279 178.469ZM376.645 178.61C377.45 178.539 378.256 178.5 379.063 178.494L379.047 176.494C378.187 176.5 377.327 176.542 376.469 176.618L376.645 178.61ZM373.53 178.885L376.645 178.61L376.469 176.618L373.354 176.893L373.53 178.885ZM351.181 194.533C356.427 186.607 364.361 180.096 373.573 178.88L373.311 176.898C363.332 178.215 354.952 185.211 349.513 193.429L351.181 194.533ZM340.351 219.757C343.256 210.917 346.15 202.133 351.181 194.533L349.513 193.429C344.309 201.291 341.341 210.339 338.451 219.132L340.351 219.757ZM339.967 220.923C340.095 220.534 340.223 220.145 340.351 219.757L338.451 219.132C338.323 219.521 338.195 219.909 338.068 220.297L339.967 220.923ZM327.78 247.482C333.662 239.549 336.944 230.104 339.967 220.923L338.068 220.297C335.037 229.502 331.838 238.651 326.173 246.29L327.78 247.482ZM322.446 253.853C324.261 251.81 326.112 249.73 327.78 247.482L326.174 246.29C324.567 248.455 322.776 250.471 320.951 252.524L322.446 253.853ZM318.278 258.716C319.6 257.055 321.012 255.466 322.446 253.853L320.951 252.524C319.523 254.13 318.074 255.76 316.713 257.471L318.278 258.716ZM300.795 296.572C305.101 283.121 309.629 269.587 318.278 258.716L316.713 257.471C307.802 268.671 303.182 282.555 298.89 295.962L300.795 296.572ZM381.237 322.592L300.161 295.319L299.523 297.215L380.6 324.488L381.237 322.592ZM386.298 304.654C384.666 311.019 382.772 317.236 380.013 323.115L381.824 323.965C384.66 317.92 386.591 311.564 388.236 305.15L386.298 304.654ZM392.512 383.588C393.511 383.53 393.511 383.529 393.511 383.529C393.511 383.528 393.511 383.528 393.511 383.527C393.511 383.525 393.51 383.522 393.51 383.518C393.51 383.51 393.509 383.499 393.508 383.483C393.506 383.452 393.504 383.406 393.5 383.345C393.493 383.223 393.482 383.042 393.469 382.806C393.441 382.333 393.4 381.637 393.348 380.746C393.243 378.964 393.092 376.403 392.905 373.283C392.532 367.045 392.019 358.575 391.458 349.649C390.338 331.81 389.025 312.113 388.262 304.798L386.272 305.006C387.031 312.269 388.341 331.915 389.462 349.774C390.023 358.698 390.536 367.166 390.909 373.403C391.095 376.521 391.246 379.082 391.351 380.863C391.404 381.754 391.444 382.45 391.472 382.923C391.486 383.159 391.496 383.34 391.503 383.461C391.507 383.522 391.51 383.568 391.511 383.599C391.512 383.615 391.513 383.626 391.514 383.634C391.514 383.638 391.514 383.641 391.514 383.643C391.514 383.644 391.514 383.644 391.514 383.645C391.514 383.645 391.514 383.646 392.512 383.588Z" fill="white" mask="url(#path-49-inside-2_8_483)"/>
<path d="M401.375 332.016C401.375 332.016 387.767 301.909 386.837 301.977C360.248 299.76 368.478 266.248 377.647 238.736V205.968" stroke="white" stroke-linecap="round" stroke-linejoin="round"/>
<path d="M458.63 205.837L406.661 302.999L337.361 310.168L312.563 312.732C312.133 312.763 311.706 312.825 311.286 312.919L310.985 312.987L310.335 313.142L309.988 313.236C309.048 313.495 307.952 313.848 306.732 314.274C306.426 314.378 306.114 314.492 305.792 314.611L304.297 315.172L302.708 315.795C301.903 316.112 301.067 316.454 300.206 316.833L299.499 317.119L297.423 318.001L295.517 318.826L294.214 319.397C293.118 319.88 291.997 320.384 290.86 320.898L290.169 321.209L289.162 321.666L288.404 322.014L285.963 323.135C285.122 323.519 284.281 323.913 283.43 324.308C282.282 324.827 281.124 325.388 279.966 325.938C278.468 326.63 276.965 327.343 275.46 328.077L274.878 328.357L270.075 330.667L269.037 331.186L264.743 333.262L263.185 334.03L262.521 334.358L261.212 335.001L259.291 335.941L257.141 336.979L256.534 337.28L256.051 337.519L255.08 337.996L253.959 338.547L250.843 340.104L249.426 340.799L247.707 341.645L247.307 341.838C245.231 342.876 243.704 343.576 242.946 343.914C240.734 343.82 238.958 346.073 238.341 347.973C235.511 356.689 232.66 365.482 231.985 374.535C231.902 375.687 231.866 376.897 232.447 377.924C233.029 378.952 234.457 379.684 235.641 379.233C236.617 378.859 237.068 377.873 237.432 376.98C241.167 367.73 244.902 358.481 248.637 349.235C245.599 357.021 242.868 365.669 242.001 373.86C241.807 374.901 241.89 375.975 242.24 376.975C242.465 377.497 242.848 377.935 243.335 378.228C243.822 378.522 244.389 378.655 244.955 378.61C245.722 378.435 246.415 378.027 246.939 377.442C251.321 373.263 253.761 368.01 255.823 362.534C254.644 366.127 253.706 369.795 253.014 373.512C252.729 374.622 252.707 375.783 252.951 376.902C253.112 377.486 253.437 378.012 253.89 378.415C254.342 378.819 254.902 379.083 255.501 379.175C257.167 379.352 258.512 378.028 259.468 376.798C263.652 371.426 266.628 365.435 269.167 359.269C267.567 364.061 266.295 368.957 265.361 373.922C265.034 375.692 265.065 378.002 266.918 378.682C267.628 378.908 268.39 378.908 269.099 378.682C272.017 377.873 273.621 375.147 274.857 372.656C278.03 366.281 280.831 359.727 283.248 353.029C295.024 353.709 306.415 351.96 316.743 347.345L410.233 350.06H429.823C435.306 350.06 440.675 348.492 445.296 345.541C449.917 342.591 453.598 338.381 455.904 333.408L459.538 325.528L465.323 313.07L508.272 220.47L458.63 205.837ZM258.969 353.777C259.488 352.38 260.065 350.999 260.683 349.624C260.101 350.979 259.519 352.359 258.969 353.751V353.777Z" fill="#F7C39F"/>
<path d="M0.5 399.5V380.5H653.5V399.5H0.5Z" fill="white" stroke="black"/>
<path d="M320.798 371.348H313.035V374.036H320.798V371.348Z" fill="white"/>
<path d="M333.898 371.348H326.135V374.036H333.898V371.348Z" fill="white"/>
<path d="M346.993 371.348H339.23V374.036H346.993V371.348Z" fill="white"/>
<path d="M360.092 371.348H352.33V374.036H360.092V371.348Z" fill="white"/>
<path d="M373.192 371.348H365.43V374.036H373.192V371.348Z" fill="white"/>
<path d="M386.292 371.348H378.53V374.036H386.292V371.348Z" fill="white"/>
<path d="M399.392 371.348H391.63V374.036H399.392V371.348Z" fill="white"/>
<path d="M327.304 373.943H144.154L119.849 246.741C119.685 245.883 119.712 245 119.929 244.154C120.146 243.308 120.547 242.52 121.103 241.847C121.66 241.174 122.358 240.633 123.149 240.261C123.939 239.889 124.802 239.696 125.675 239.697H296.742C298.122 239.696 299.459 240.177 300.523 241.057C301.586 241.936 302.309 243.159 302.568 244.514L327.304 373.943Z" fill="#FF7323"/>
<path d="M144.154 373.943V379.103H404.148V373.943H327.304H144.154Z" fill="#FF7323"/>
<path d="M144.154 373.943L327.304 373.445V379.352" stroke="white" stroke-linecap="round" stroke-linejoin="round"/>
<path d="M497.36 280.071L497.36 280.071C496.196 284.226 495.202 288.456 494.211 292.672C493.61 295.231 493.01 297.785 492.373 300.314C490.72 306.886 488.813 313.337 485.983 319.445L405.803 292.467C410.067 279.185 414.608 265.753 423.221 254.927C424.558 253.246 425.985 251.639 427.422 250.021C427.613 249.807 427.803 249.593 427.993 249.378C429.618 247.546 431.239 245.688 432.712 243.706L432.712 243.706C438.546 235.846 441.796 226.464 444.816 217.278C444.934 216.918 445.052 216.558 445.17 216.199C448.077 207.343 450.996 198.451 456.087 190.769C461.38 182.783 469.426 176.153 478.825 174.898L481.929 174.629L481.93 174.629C498.658 173.147 513.554 185.525 514.856 202.252L514.856 202.253C515.053 204.74 515.087 207.238 514.959 209.73C514.327 221.87 512.804 233.917 509.084 245.45C507.572 250.14 505.904 254.779 504.232 259.426C503.842 260.512 503.451 261.599 503.062 262.686C501.011 268.424 499.011 274.19 497.36 280.071Z" fill="black" stroke="white"/>
<path d="M437.435 110.646C437.435 112.848 437.002 115.027 436.159 117.061C435.317 119.094 434.082 120.942 432.525 122.498C430.968 124.055 429.12 125.289 427.086 126.132C425.052 126.974 422.871 127.408 420.67 127.408C418.468 127.408 416.288 126.974 414.254 126.132C412.22 125.289 410.371 124.055 408.815 122.498C407.258 120.942 406.023 119.094 405.18 117.061C404.338 115.027 403.904 112.848 403.904 110.646C403.902 109.617 403.996 108.59 404.184 107.579C404.97 103.491 407.248 99.8414 410.577 97.3407C413.905 94.8399 418.045 93.6668 422.191 94.0495C426.337 94.4322 430.192 96.3435 433.006 99.4113C435.82 102.479 437.391 106.484 437.415 110.646H437.435Z" fill="#F7C39F"/>
<path d="M406.661 302.999L416.557 301.977" stroke="black" stroke-linecap="round" stroke-linejoin="round"/>
<path d="M234.954 123.21H46.4254C41.4874 123.21 37.4844 127.212 37.4844 132.149V176.103C37.4844 181.039 41.4874 185.042 46.4254 185.042H234.954C239.892 185.042 243.895 181.039 243.895 176.103V132.149C243.895 127.212 239.892 123.21 234.954 123.21Z" fill="white"/>
<path d="M82.0875 158.893C84.3089 149.483 78.4799 140.055 69.0681 137.834C59.6564 135.613 50.2259 141.441 48.0045 150.85C45.7831 160.26 51.6121 169.688 61.0238 171.909C70.4356 174.129 79.8661 168.302 82.0875 158.893Z" fill="black"/>
<path d="M65.3314 144.487H64.6887C62.8746 144.487 61.4039 145.957 61.4039 147.771V154.675C61.4039 156.489 62.8746 157.959 64.6887 157.959H65.3314C67.1456 157.959 68.6162 156.489 68.6162 154.675V147.771C68.6162 145.957 67.1456 144.487 65.3314 144.487Z" fill="#F4EBE1"/>
<path d="M65.5707 159.333H64.56V165.684H65.5707V159.333Z" fill="#F4EBE1"/>
<path d="M69.9593 152.039V154.76C69.957 155.952 69.4822 157.095 68.6389 157.938C67.7956 158.781 66.6525 159.255 65.46 159.258H64.5202C63.3273 159.257 62.1835 158.782 61.34 157.939C60.4965 157.096 60.022 155.952 60.0209 154.76V152.039H59.3471V154.76C59.3494 156.13 59.8953 157.444 60.8651 158.413C61.8349 159.381 63.1493 159.926 64.5202 159.927H65.46C66.8304 159.926 68.1444 159.381 69.1135 158.412C70.0825 157.443 70.6275 156.13 70.6286 154.76V152.039H69.9593Z" fill="#F4EBE1"/>
<path d="M67.7385 164.7H62.2861V165.688H67.7385V164.7Z" fill="#F4EBE1"/>
<path d="M93.9855 140.72H90.0181V169.774H93.9855V140.72Z" fill="black"/>
<path d="M101.96 145.808H97.9927V169.77H101.96V145.808Z" fill="black"/>
<path d="M125.884 145.808H121.917V169.77H125.884V145.808Z" fill="black"/>
<path d="M197.652 145.808H193.684V169.77H197.652V145.808Z" fill="black"/>
<path d="M141.833 152.016H137.866V169.77H141.833V152.016Z" fill="black"/>
<path d="M149.808 154.25H145.841V169.77H149.808V154.25Z" fill="black"/>
<path d="M189.677 154.25H185.71V169.77H189.677V154.25Z" fill="black"/>
<path d="M213.601 154.25H209.634V169.77H213.601V154.25Z" fill="black"/>
<path d="M133.859 140.591H129.891V169.77H133.859V140.591Z" fill="black"/>
<path d="M157.778 140.591H153.811V169.77H157.778V140.591Z" fill="black"/>
<path d="M181.702 140.591H177.735V169.77H181.702V140.591Z" fill="black"/>
<path d="M221.576 140.591H217.608V169.77H221.576V140.591Z" fill="black"/>
<path d="M173.727 136.497H169.76V169.774H173.727V136.497Z" fill="black"/>
<path d="M229.551 136.497H225.583V169.774H229.551V136.497Z" fill="black"/>
<path d="M165.753 140.591H161.786V169.77H165.753V140.591Z" fill="black"/>
<path d="M109.935 152.513H105.967V169.77H109.935V152.513Z" fill="black"/>
<path d="M117.909 160.087H113.942V169.77H117.909V160.087Z" fill="black"/>
<path d="M205.626 160.087H201.659V169.77H205.626V160.087Z" fill="black"/>
<path d="M384.88 155.423L402.995 143.167L387.273 164.357L384.88 155.423Z" fill="black"/>
<path d="M383.971 124.07C383.312 126.255 384.62 128.436 386.63 129.391" stroke="black" stroke-linecap="round" stroke-linejoin="round"/>
<path d="M424.937 91.6789V53.1782C424.937 52.4637 424.654 51.7784 424.148 51.2732C423.643 50.768 422.957 50.4841 422.243 50.4841H418.504C417.79 50.4841 417.104 50.768 416.599 51.2732C416.093 51.7784 415.81 52.4637 415.81 53.1782V91.6789" fill="#FF7323"/>
<path d="M435.24 125.944C443.288 117.898 443.288 104.853 435.24 96.8071C427.192 88.7613 414.144 88.7613 406.096 96.8071C398.048 104.853 398.048 117.898 406.096 125.944C414.144 133.989 427.192 133.989 435.24 125.944Z" fill="#FF7323"/>
<path d="M418.198 111.269C418.198 112.353 418.629 113.392 419.395 114.158C420.161 114.924 421.201 115.355 422.284 115.355H437.295C437.935 112.668 437.917 109.867 437.243 107.189H422.284C421.201 107.189 420.163 107.619 419.397 108.384C418.63 109.149 418.199 110.187 418.198 111.269Z" fill="black"/>
<path d="M403.582 111.373C403.581 114.753 404.583 118.058 406.461 120.869C408.338 123.68 411.008 125.871 414.131 127.165C417.255 128.459 420.692 128.798 424.008 128.139C427.324 127.479 430.37 125.852 432.761 123.462C435.152 121.071 436.78 118.026 437.439 114.711C438.099 111.395 437.76 107.959 436.465 104.836C435.171 101.714 432.979 99.045 430.168 97.1677C427.356 95.2904 424.051 94.2889 420.67 94.2899C416.138 94.2899 411.791 96.0897 408.587 99.2935C405.382 102.497 403.582 106.842 403.582 111.373V111.373Z" stroke="black" stroke-linecap="round" stroke-linejoin="round"/>
<path d="M373.691 159.254C369.999 170.155 371.416 178.803 373.691 190.067C377.138 207.197 350.171 248.494 351.022 265.935C351.702 279.857 360.025 286.076 359.531 300.008C358.919 317.418 366.899 315.489 363.794 332.634C362.569 339.413 354.631 344.115 351.022 349.981C348.203 354.56 351.826 360.068 347.782 363.613C343.737 367.159 342.273 366.868 343.784 372.022C345.445 364.387 357.465 370.216 363.753 365.57C369.272 361.495 368.888 353.346 370.669 346.722C374.963 330.75 393.12 322.252 399.745 307.09C409.091 285.698 392.258 260.263 399.397 238.051C403.785 224.415 416.604 214.376 419.517 200.345C421.729 189.688 417.793 178.854 416.074 168.104C414.186 156.184 415.035 143.991 418.556 132.448" stroke="#FF7323" stroke-linecap="round" stroke-linejoin="round"/>
<path d="M231.656 303.967C231.657 302.486 231.195 301.042 230.337 299.836C229.478 298.629 228.265 297.721 226.865 297.236C225.466 296.751 223.95 296.714 222.529 297.131C221.108 297.547 219.852 298.396 218.936 299.56C218.335 298.796 217.584 298.164 216.73 297.702C215.876 297.24 214.936 296.957 213.968 296.871C213.001 296.785 212.026 296.898 211.103 297.203C210.181 297.507 209.331 297.997 208.605 298.643C207.879 299.288 207.293 300.075 206.882 300.955C206.472 301.835 206.245 302.79 206.218 303.76C206.19 304.731 206.361 305.697 206.72 306.6C207.079 307.502 207.619 308.321 208.307 309.007C208.411 309.111 208.52 309.215 208.629 309.308L219.283 319.295L229.798 308.784C231 307.468 231.663 305.749 231.656 303.967Z" fill="white"/>
<path d="M303.438 29.5016C303.426 27.2276 302.709 25.0133 301.385 23.164C300.061 21.3147 298.196 19.9215 296.047 19.1765C293.898 18.4315 291.571 18.3715 289.386 19.0047C287.201 19.6378 285.267 20.933 283.849 22.7116C282.942 21.4842 281.789 20.4592 280.463 19.7021C279.137 18.9449 277.668 18.4721 276.15 18.3139C274.631 18.1556 273.097 18.3153 271.643 18.7829C270.19 19.2504 268.85 20.0155 267.709 21.0294C266.568 22.0433 265.65 23.2838 265.015 24.6717C264.38 26.0597 264.041 27.5647 264.019 29.0909C263.998 30.6171 264.295 32.131 264.892 33.536C265.488 34.9411 266.371 36.2066 267.483 37.2518C267.645 37.4138 267.807 37.5699 267.981 37.7203L284.382 53.0934L300.58 36.899C302.425 34.8775 303.445 32.238 303.438 29.5016Z" fill="#FF7323"/>
<path d="M308.378 0.623657H259.326C256.806 0.625176 254.311 1.12291 251.983 2.08843C249.656 3.05394 247.541 4.46834 245.76 6.25087C243.979 8.03339 242.567 10.1491 241.604 12.4773C240.641 14.8055 240.146 17.3004 240.148 19.8198V49.3572C240.147 51.8775 240.643 54.3733 241.608 56.7019C242.572 59.0305 243.986 61.1464 245.768 62.9285C247.551 64.7106 249.667 66.1242 251.997 67.0883C254.326 68.0524 256.822 68.5483 259.343 68.5475H292.504L299.909 79.8952C300.431 80.6955 301.174 81.3265 302.049 81.7111C302.924 82.0957 303.891 82.2172 304.834 82.0607C305.777 81.9043 306.653 81.4767 307.357 80.8302C308.06 80.1837 308.56 79.3463 308.795 78.4203L311.369 68.3162C315.885 67.6026 319.998 65.3008 322.968 61.8251C325.938 58.3494 327.569 53.9282 327.568 49.3572V19.8198C327.569 17.2997 327.073 14.8041 326.109 12.4755C325.145 10.147 323.732 8.03099 321.95 6.24847C320.168 4.46594 318.052 3.05176 315.724 2.08665C313.395 1.12155 310.899 0.624417 308.378 0.623657V0.623657Z" stroke="white" stroke-linecap="round" stroke-linejoin="round"/>
</svg>
