<svg width="227" height="24" viewBox="0 0 227 24" fill="none" xmlns="http://www.w3.org/2000/svg">
<path d="M7.90233 6.36066V10.2951H17.6798V16.1311H7.90233V23.4754H0V0.52459H19.0527V6.36066H7.90233Z" fill="white"/>
<path d="M36.671 19.4754H27.7641L26.1903 23.4754H18.1541L28.4003 0.52459H36.1687L46.4149 23.4754H38.2447L36.671 19.4754ZM34.4945 13.9016L32.2175 8.13115L29.9406 13.9016H34.4945Z" fill="white"/>
<path d="M59.4705 24C56.9926 24 54.7603 23.4973 52.7736 22.4918C50.7868 21.4645 49.2242 20.0437 48.0858 18.2295C46.9696 16.3934 46.4115 14.3169 46.4115 12C46.4115 9.68306 46.9696 7.61749 48.0858 5.80328C49.2242 3.96721 50.7868 2.54645 52.7736 1.54098C54.7603 0.513661 56.9926 0 59.4705 0C61.7474 0 63.7788 0.393443 65.5647 1.18033C67.3505 1.96721 68.8238 3.10382 69.9846 4.59016L64.9954 8.95082C63.5444 7.15847 61.8367 6.2623 59.8723 6.2623C58.2204 6.2623 56.8922 6.78688 55.8876 7.83607C54.8831 8.86339 54.3808 10.2514 54.3808 12C54.3808 13.7486 54.8831 15.1475 55.8876 16.1967C56.8922 17.224 58.2204 17.7377 59.8723 17.7377C61.8367 17.7377 63.5444 16.8415 64.9954 15.0492L69.9846 19.4098C68.8238 20.8962 67.3505 22.0328 65.5647 22.8197C63.7788 23.6066 61.7474 24 59.4705 24Z" fill="white"/>
<path d="M91.7542 17.6393V23.4754H72.2663V0.52459H91.3189V6.36066H80.0346V9.04918H89.946V14.623H80.0346V17.6393H91.7542Z" fill="white"/>
<path d="M122.649 17.4754V23.4754H103.864V18.7213L112.336 11.0492C113.072 10.3716 113.563 9.79235 113.809 9.31148C114.054 8.8306 114.177 8.36066 114.177 7.90164C114.177 7.33333 113.976 6.89617 113.575 6.59016C113.195 6.2623 112.637 6.09836 111.9 6.09836C111.186 6.09836 110.516 6.28415 109.891 6.65574C109.266 7.02732 108.786 7.55191 108.451 8.22951L102.491 5.31148C103.384 3.67213 104.69 2.38251 106.409 1.44262C108.128 0.480874 110.204 0 112.637 0C114.49 0 116.131 0.295082 117.559 0.885246C118.988 1.47541 120.104 2.31694 120.908 3.40984C121.711 4.50273 122.113 5.75956 122.113 7.18033C122.113 8.44809 121.834 9.63935 121.276 10.7541C120.74 11.847 119.68 13.0929 118.095 14.4918L114.747 17.4754H122.649Z" fill="white"/>
<path d="M143.148 6.36066V10.2951H152.926V16.1311H143.148V23.4754H135.246V0.52459H154.298V6.36066H143.148Z" fill="white"/>
<path d="M171.917 19.4754H163.01L161.436 23.4754H153.4L163.646 0.52459H171.415L181.661 23.4754H173.491L171.917 19.4754ZM169.74 13.9016L167.463 8.13115L165.186 13.9016H169.74Z" fill="white"/>
<path d="M194.716 24C192.238 24 190.006 23.4973 188.019 22.4918C186.033 21.4645 184.47 20.0437 183.332 18.2295C182.215 16.3934 181.657 14.3169 181.657 12C181.657 9.68306 182.215 7.61749 183.332 5.80328C184.47 3.96721 186.033 2.54645 188.019 1.54098C190.006 0.513661 192.238 0 194.716 0C196.993 0 199.025 0.393443 200.81 1.18033C202.596 1.96721 204.07 3.10382 205.23 4.59016L200.241 8.95082C198.79 7.15847 197.083 6.2623 195.118 6.2623C193.466 6.2623 192.138 6.78688 191.133 7.83607C190.129 8.86339 189.627 10.2514 189.627 12C189.627 13.7486 190.129 15.1475 191.133 16.1967C192.138 17.224 193.466 17.7377 195.118 17.7377C197.083 17.7377 198.79 16.8415 200.241 15.0492L205.23 19.4098C204.07 20.8962 202.596 22.0328 200.81 22.8197C199.025 23.6066 196.993 24 194.716 24Z" fill="white"/>
<path d="M227 17.6393V23.4754H207.512V0.52459H226.565V6.36066H215.28V9.04918H225.192V14.623H215.28V17.6393H227Z" fill="white"/>
</svg>
