<svg width="140" height="131" viewBox="0 0 140 131" fill="none" xmlns="http://www.w3.org/2000/svg">
<path d="M108.794 1.21356H31.3135C27.3327 1.21356 23.3908 1.99878 19.713 3.52435C16.0352 5.04992 12.6935 7.28597 9.87861 10.1049C7.06375 12.9237 4.83087 16.2703 3.30747 19.9533C1.78408 23.6364 1 27.5838 1 31.5704V78.3111C1 86.3622 4.19373 94.0836 9.87861 99.7766C15.5635 105.47 23.2738 108.668 31.3135 108.668H83.6951L95.3985 126.625C96.2222 127.891 97.3964 128.889 98.7775 129.497C100.159 130.105 101.687 130.296 103.175 130.048C104.663 129.801 106.047 129.124 107.157 128.101C108.267 127.078 109.056 125.753 109.426 124.288L113.497 108.268C120.637 107.147 127.141 103.509 131.839 98.0094C136.536 92.5099 139.117 85.5108 139.116 78.2739V31.5424C139.109 23.4945 135.911 15.7789 130.225 10.0917C124.539 4.40447 116.83 1.21109 108.794 1.21356Z" fill="black" stroke="white" stroke-linecap="round" stroke-linejoin="round"/>
<path d="M100.815 46.4382C100.814 42.84 99.6975 39.3317 97.6219 36.4007C95.5462 33.4698 92.6142 31.262 89.2332 30.0841C85.8523 28.9061 82.1904 28.8166 78.7566 29.828C75.3228 30.8394 72.2875 32.9014 70.0728 35.7275C68.623 33.8671 66.8098 32.3248 64.7449 31.1958C62.6799 30.0667 60.407 29.3747 58.0661 29.1625C55.7251 28.9502 53.3658 29.2222 51.1333 29.9616C48.9009 30.701 46.8426 31.8922 45.0853 33.4619C43.328 35.0315 41.9088 36.9464 40.9152 39.0885C39.9217 41.2305 39.3747 43.5545 39.3081 45.9172C39.2415 48.2799 39.6566 50.6313 40.5278 52.8266C41.3991 55.0218 42.708 57.0144 44.3741 58.6817C44.6327 58.9418 44.8914 59.1833 45.1593 59.4249L70.9042 83.6889L96.3165 58.1429C99.2248 54.9481 100.831 50.7695 100.815 46.4382Z" fill="#FF7323"/>
</svg>
