<svg width="282" height="318" viewBox="0 0 282 318" fill="none" xmlns="http://www.w3.org/2000/svg">
<path d="M235.601 -20.9864L235.87 -20.2099L236.436 -20.8058L323.783 -112.789L290.42 13.5609L290.225 14.3008L290.981 14.1825L413.108 -4.92099L316.096 75.5719L315.533 76.039L316.173 76.3939L426.403 137.547L302.85 141.37L302.085 141.394L302.414 142.085L358.578 260.08L255.721 185.847L255.054 185.366L254.933 186.179L235.649 315.901L192.696 191.986L192.427 191.21L191.861 191.806L104.514 283.789L137.877 157.439L138.073 156.699L137.317 156.818L15.1891 175.921L112.201 95.4281L112.764 94.961L112.125 94.6061L1.89435 33.4526L125.448 29.6297L126.213 29.606L125.884 28.915L69.7192 -89.0799L172.577 -14.8466L173.243 -14.3657L173.364 -15.1785L192.648 -144.901L235.601 -20.9864Z" stroke="white"/>
</svg>
