<svg width="97" height="169" viewBox="0 0 97 169" fill="none" xmlns="http://www.w3.org/2000/svg">
<path d="M85.6017 47.288L85.8111 48.0827L86.4206 47.5314L119.258 17.8322L104.286 60.9584L104.035 61.6814L104.798 61.6208L147.865 58.2035L111.903 83.694L111.306 84.117L111.917 84.5195L148.728 108.768L105.569 106.822L104.805 106.788L105.08 107.502L121.515 150.092L87.6837 121.531L87.0558 121.001L86.8736 121.802L76.7276 166.427L65.0645 122.174L64.8551 121.379L64.2456 121.931L31.4084 151.63L46.3801 108.504L46.6311 107.781L45.8682 107.841L2.80133 111.259L38.7632 85.7681L39.36 85.3451L38.7491 84.9426L1.93824 60.6943L45.0967 62.6399L45.8612 62.6743L45.5857 61.9604L29.1509 19.3702L62.9825 47.9315L63.6104 48.4616L63.7926 47.6603L73.9386 3.03468L85.6017 47.288Z" stroke="#FF7323"/>
</svg>
